<?xml version="1.0" standalone="no"?>
<!DOCTYPE svg PUBLIC "-//W3C//DTD SVG 20010904//EN"
 "http://www.w3.org/TR/2001/REC-SVG-20010904/DTD/svg10.dtd">
<svg version="1.0" xmlns="http://www.w3.org/2000/svg"
 width="300.000000pt" height="300.000000pt" viewBox="0 0 300.000000 300.000000"
 preserveAspectRatio="xMidYMid meet">
<metadata>
Created by potrace 1.14, written by Peter Selinger 2001-2017
</metadata>
<g transform="translate(0.000000,300.000000) scale(0.100000,-0.100000)"
fill="#000000" stroke="none">
<path d="M1727 2823 c-5 -12 -21 -34 -37 -49 -24 -23 -27 -31 -18 -50 8 -17 8
-27 -2 -39 -26 -31 -69 -5 -70 43 0 37 -18 16 -25 -31 -4 -23 -11 -49 -16 -58
-6 -11 -4 -21 6 -29 22 -18 18 -37 -10 -66 -17 -17 -25 -36 -25 -58 0 -30 2
-33 25 -28 30 5 35 -21 8 -37 -14 -7 -15 -14 -6 -33 5 -12 7 -32 3 -43 -5 -11
-20 -74 -35 -140 -15 -66 -38 -160 -51 -210 -18 -69 -21 -91 -11 -97 27 -17
27 -16 66 152 42 179 71 284 86 307 9 13 13 28 10 33 -9 15 52 73 69 67 16 -6
20 -34 16 -127 -1 -36 1 -43 11 -32 23 21 29 13 29 -37 0 -39 -8 -63 -34 -108
-43 -73 -56 -116 -32 -107 13 5 16 -1 16 -27 0 -19 4 -49 9 -67 9 -28 7 -32
-10 -32 -10 0 -19 -7 -19 -15 0 -8 -6 -15 -14 -15 -20 0 -43 30 -25 31 8 1 17
1 22 0 4 0 7 6 7 14 0 9 -9 15 -21 15 -18 0 -21 5 -17 35 4 38 -7 47 -17 14
-15 -48 -9 -109 15 -134 23 -25 22 -55 -3 -55 -7 0 -25 -6 -41 -12 -23 -11
-26 -18 -23 -43 2 -16 -1 -38 -7 -47 -8 -14 -7 -23 2 -39 17 -27 10 -34 -11
-12 -10 12 -17 42 -19 87 -4 85 -32 126 -85 126 -20 0 -41 8 -53 20 -11 11
-29 20 -40 20 -24 0 -26 13 -4 31 9 8 18 9 22 3 4 -5 21 -15 37 -22 l30 -13
-33 30 c-28 26 -31 34 -22 52 11 19 10 20 -10 9 -12 -6 -24 -18 -27 -26 -8
-21 -30 -17 -36 6 -6 24 -45 27 -53 5 -9 -21 -24 -19 -24 4 0 10 -6 21 -14 24
-18 7 -57 -3 -51 -13 3 -4 -2 -13 -9 -19 -12 -10 -13 -8 -9 10 5 18 3 20 -16
14 -12 -4 -21 -2 -21 4 0 6 7 11 15 11 18 0 20 30 3 31 -7 1 -17 2 -23 4 -5 1
-14 3 -20 4 -5 1 -3 6 5 11 24 15 80 12 86 -5 4 -8 11 -15 16 -15 12 0 2 64
-13 89 -15 23 5 69 33 80 22 9 22 9 3 16 -11 4 -30 11 -43 16 -13 5 -34 9 -47
9 -20 0 -26 8 -39 54 -9 30 -16 59 -16 65 0 6 -11 20 -24 32 -16 14 -22 29
-20 47 3 26 1 27 -43 28 -27 1 -49 7 -53 15 -30 51 -59 80 -90 89 -48 14 -59
-2 -26 -40 36 -43 34 -73 -8 -105 -20 -15 -40 -42 -47 -63 -6 -20 -18 -50 -27
-67 -8 -16 -18 -37 -22 -45 -4 -8 -17 -16 -29 -18 -11 -2 -37 -18 -56 -36 -31
-30 -35 -39 -35 -85 0 -28 5 -51 10 -51 6 0 10 6 10 13 0 20 59 77 81 77 33 0
33 -27 0 -57 -17 -16 -33 -43 -37 -60 -12 -58 16 -114 29 -60 10 38 34 64 48
50 17 -17 2 -102 -19 -110 -9 -4 -21 -12 -25 -20 -11 -18 -27 -16 -27 3 0 15
-2 15 -25 0 -30 -20 -54 -20 -61 -1 -4 8 -12 15 -20 15 -25 0 -15 -28 23 -65
20 -19 34 -35 32 -36 -2 0 -15 -2 -29 -5 -14 -2 -32 -13 -42 -24 -10 -12 -23
-18 -32 -14 -9 3 -23 1 -31 -6 -15 -13 -20 -5 -16 28 3 17 -24 15 -39 -3 -13
-16 -40 -21 -40 -7 0 4 5 13 11 19 8 8 -6 11 -51 11 -51 0 -63 -3 -67 -18 -7
-28 -60 -62 -91 -58 l-27 3 32 18 c21 11 30 22 27 32 -5 13 -8 13 -21 0 -8 -8
-24 -15 -37 -15 -12 0 -27 -5 -33 -11 -6 -6 -25 -9 -42 -7 l-31 3 25 38 26 37
-24 0 c-21 0 -27 -8 -42 -55 -11 -38 -15 -68 -10 -97 4 -24 4 -40 0 -36 -4 4
-11 33 -15 65 -7 57 -7 56 -9 -29 -1 -68 2 -88 12 -88 8 0 18 -10 24 -22 8
-19 6 -25 -11 -33 -14 -7 -22 -22 -24 -43 -3 -34 8 -41 28 -18 6 8 17 13 23
11 7 -2 24 -6 39 -9 16 -4 28 -13 28 -21 0 -12 5 -12 25 -3 31 14 43 4 27 -23
-12 -18 -11 -19 5 -11 10 6 28 22 40 36 22 25 52 34 67 19 4 -5 22 -8 39 -8
40 0 46 -21 7 -28 -30 -6 -57 -47 -45 -67 3 -5 1 -10 -4 -12 -6 -2 -7 -18 -2
-41 8 -34 6 -51 -15 -109 -8 -21 -34 -12 -34 12 0 10 -7 21 -16 24 -8 3 -12
10 -9 16 3 6 -2 13 -12 17 -10 3 -31 15 -47 26 -43 30 -136 42 -143 20 -3 -9
6 -13 26 -13 21 0 34 -7 42 -21 8 -17 13 -19 19 -9 12 19 104 -29 109 -56 2
-10 12 -27 22 -37 10 -10 19 -24 19 -32 0 -7 7 -20 15 -29 23 -23 23 -100 1
-125 -28 -31 -31 -19 -10 39 17 48 17 51 0 68 -17 16 -19 15 -58 -31 -22 -26
-45 -47 -50 -47 -6 0 -24 -12 -41 -26 -21 -18 -33 -22 -35 -14 -3 7 2 16 9 21
55 34 79 64 79 100 0 20 7 42 15 49 8 7 15 19 15 26 0 24 -29 15 -44 -13 -11
-23 -21 -28 -50 -28 -33 0 -37 2 -34 25 2 16 13 30 31 38 36 17 36 40 -1 37
-41 -3 -41 -3 -39 -31 1 -15 -4 -29 -10 -31 -8 -3 -13 4 -13 16 0 12 -4 21
-10 21 -7 0 -10 -213 -10 -620 l0 -620 1034 0 1033 0 -12 55 c-7 30 -16 155
-20 277 -3 122 -10 227 -14 233 -5 5 -11 55 -14 110 -3 55 -8 111 -12 125 -4
14 -8 119 -9 235 -2 116 -9 242 -16 281 -11 61 -10 78 4 128 9 31 21 120 27
199 5 78 16 172 24 209 8 37 15 89 15 117 0 34 12 81 40 152 22 57 40 113 40
125 0 38 -19 37 -41 0 -12 -20 -26 -36 -31 -36 -6 0 -26 13 -44 30 -44 38 -75
45 -136 31 -66 -15 -63 -16 -94 24 -18 25 -23 39 -17 48 37 45 73 132 86 207
24 128 29 192 20 218 l-9 23 -14 -28 c-36 -70 -65 -103 -93 -103 -33 0 -47 26
-23 43 14 10 16 26 14 77 -2 47 -5 59 -11 43z m-917 -691 c20 -16 21 -20 7
-25 -16 -6 -47 16 -47 34 0 14 16 11 40 -9z m180 -3 c-7 -12 -17 -18 -27 -15
-8 3 -20 6 -26 6 -16 1 34 29 51 30 10 0 10 -5 2 -21z m960 -147 c0 -13 -12
-22 -22 -16 -10 6 -1 24 13 24 5 0 9 -4 9 -8z m-115 -42 c3 -5 -3 -10 -14 -10
-12 0 -21 5 -21 10 0 6 6 10 14 10 8 0 18 -4 21 -10z m-635 -27 c-1 -5 -8 -19
-16 -33 -8 -14 -13 -17 -10 -7 9 27 -10 20 -38 -15 -19 -24 -22 -36 -14 -45
14 -17 6 -25 -16 -17 -24 9 -12 41 33 86 33 34 61 49 61 31z m526 -130 c-7
-21 -19 -72 -26 -113 -26 -145 -110 -212 -245 -195 -73 9 -110 25 -165 73 -56
50 -48 64 11 19 104 -80 172 -94 272 -57 48 18 57 26 80 73 20 39 28 74 33
139 5 67 10 85 20 81 21 -8 17 24 -6 47 -11 11 -20 23 -20 28 0 4 14 -8 30
-25 28 -31 29 -34 16 -70z m-666 56 c0 -11 -4 -18 -9 -15 -13 8 -52 -39 -46
-56 4 -10 -1 -17 -17 -21 -22 -6 -22 -7 -3 -22 20 -15 19 -16 -5 -13 -22 3
-25 9 -28 46 -3 36 1 47 27 72 36 36 81 41 81 9z m120 -42 c0 -35 28 -109 67
-177 2 -3 -45 -4 -105 -2 -90 3 -110 1 -121 -12 -7 -9 -20 -16 -27 -16 -18 0
-29 -28 -44 -110 -6 -36 -18 -96 -26 -134 -10 -47 -13 -103 -10 -185 5 -93 4
-108 -5 -76 -14 52 -4 350 14 430 18 80 31 102 66 110 22 5 31 13 33 31 4 31
22 32 26 2 3 -21 8 -23 74 -25 39 -1 75 0 79 3 4 2 0 24 -10 47 -20 48 -36
172 -21 162 6 -3 10 -25 10 -48z m-370 33 c0 -5 -7 -10 -15 -10 -8 0 -15 -4
-15 -9 0 -5 -16 -16 -35 -25 -20 -10 -41 -26 -48 -37 -15 -24 -27 -24 -27 0 0
20 42 56 90 78 32 15 50 16 50 3z m-496 -76 c14 -37 7 -44 -41 -44 l-48 1 35
29 c41 34 46 36 54 14z m146 -12 c0 -7 -33 -31 -42 -32 -13 0 -9 28 5 33 16 5
37 5 37 -1z m630 -26 c0 -14 -28 -42 -35 -34 -2 2 -2 14 2 26 6 24 33 31 33 8z
m-540 -20 c0 -13 3 -33 6 -43 5 -16 4 -16 -10 1 -18 22 -22 66 -6 66 6 0 10
-11 10 -24z m1190 -16 c0 -11 -4 -20 -10 -20 -5 0 -10 9 -10 20 0 11 5 20 10
20 6 0 10 -9 10 -20z m76 -80 c27 -10 33 -30 9 -30 -8 0 -15 -9 -15 -20 0 -11
-5 -20 -11 -20 -7 0 -9 11 -6 26 3 19 -1 28 -17 34 -11 5 -15 9 -8 9 7 1 13
16 14 39 l1 37 4 -33 c3 -24 11 -36 29 -42z m-1407 -10 c21 -10 41 -28 44 -40
6 -25 -7 -35 -25 -18 -7 7 -30 14 -51 16 -50 3 -77 18 -77 42 0 27 57 27 109
0z m84 -21 c3 -10 1 -21 -3 -24 -9 -6 -30 25 -30 44 0 17 28 1 33 -20z m1250
14 c-7 -2 -19 -2 -25 0 -7 3 -2 5 12 5 14 0 19 -2 13 -5z m-699 -9 c23 -9 20
-34 -4 -34 -13 0 -20 7 -20 20 0 22 1 23 24 14z m-609 -109 c26 -25 33 -55 14
-55 -5 0 -8 4 -4 10 3 5 -8 16 -25 25 -16 8 -30 22 -30 30 0 22 18 18 45 -10z
m113 -71 c12 -8 22 -22 22 -31 0 -14 -4 -12 -24 6 -13 12 -36 26 -52 31 l-29
8 30 1 c17 1 41 -6 53 -15z m-78 -48 c0 -2 -7 -7 -16 -10 -8 -3 -12 -2 -9 4 6
10 25 14 25 6z m186 -79 c7 -21 -6 -39 -13 -19 -3 7 -18 25 -34 41 -16 16 -29
34 -29 41 0 16 69 -41 76 -63z m-354 -39 c-7 -7 -12 -8 -12 -2 0 14 12 26 19
19 2 -3 -1 -11 -7 -17z m78 -2 c0 -3 -4 -8 -10 -11 -5 -3 -10 -1 -10 4 0 6 5
11 10 11 6 0 10 -2 10 -4z m-95 -25 c3 -5 1 -12 -5 -16 -5 -3 -10 1 -10 9 0
18 6 21 15 7z m421 -69 c6 -20 26 -42 51 -59 40 -26 63 -58 63 -90 0 -13 -3
-13 -15 -3 -8 7 -12 16 -9 21 9 16 -24 41 -46 34 -11 -3 -20 -2 -20 4 0 5 -6
16 -12 23 -19 21 -48 78 -48 95 0 25 24 8 36 -25z m-386 16 c0 -7 -5 -20 -10
-28 -8 -12 -10 -9 -10 13 0 15 5 27 10 27 6 0 10 -6 10 -12z m250 -67 c0 -5
14 -14 30 -20 33 -11 41 -26 10 -18 -34 9 -57 -65 -31 -97 17 -20 30 -20 52 0
10 9 23 13 29 9 18 -11 -27 -47 -66 -52 -31 -4 -34 -2 -34 20 0 14 -7 28 -16
31 -9 3 -13 13 -11 23 3 10 8 39 12 66 3 26 10 47 16 47 5 0 9 -4 9 -9z m-420
-75 c0 -14 -29 -31 -38 -21 -6 6 18 35 29 35 5 0 9 -6 9 -14z m825 -166 c15
-52 32 -103 37 -114 6 -11 6 -16 0 -13 -11 8 -68 168 -77 217 -10 59 10 13 40
-90z m-215 65 c11 -13 10 -14 -4 -9 -9 3 -16 10 -16 15 0 13 6 11 20 -6z m-90
-46 c14 -11 19 -18 13 -14 -7 3 -13 2 -13 -3 0 -12 -38 -4 -46 9 -6 10 3 29
14 29 4 0 18 -10 32 -21z m35 -69 c18 -8 17 -9 -7 -9 -16 -1 -28 4 -28 9 0 12
8 12 35 0z m353 -185 c-3 -3 -9 2 -12 12 -6 14 -5 15 5 6 7 -7 10 -15 7 -18z"/>
<path d="M2342 2605 c2 -2 23 -8 47 -14 33 -7 41 -7 32 2 -6 6 -28 12 -47 14
-20 1 -35 0 -32 -2z"/>
<path d="M2629 2563 c-13 -15 -12 -16 9 -11 34 9 69 -30 74 -84 4 -40 29 -119
49 -160 5 -10 9 -26 9 -36 0 -10 5 -23 12 -30 9 -9 9 -18 0 -36 -9 -21 -8 -28
6 -38 35 -26 58 -127 32 -143 -15 -9 -12 -35 4 -35 20 0 26 -23 26 -95 0 -45
-5 -68 -16 -79 -21 -22 -37 -10 -30 23 l7 26 -21 -25 -20 -25 21 -14 c20 -14
19 -15 -12 -28 -29 -12 -33 -11 -46 7 -23 32 -63 25 -111 -19 -23 -22 -47 -41
-54 -44 -10 -3 -10 -7 -1 -17 9 -9 7 -19 -7 -43 -17 -28 -18 -33 -3 -61 8 -17
22 -39 31 -48 8 -10 10 -18 5 -18 -6 0 -16 7 -23 15 -20 24 -43 18 -94 -28
-39 -34 -47 -47 -42 -64 4 -11 16 -23 26 -26 23 -6 17 -37 -6 -37 -20 0 -18
-79 2 -108 9 -13 11 -22 4 -22 -21 0 -39 64 -30 104 7 33 6 39 -10 43 -23 6
-40 45 -33 74 6 21 4 22 -9 12 -19 -16 -98 -44 -98 -35 0 12 99 62 123 62 23
0 67 39 67 60 0 8 9 10 24 6 23 -6 24 -4 16 22 -7 26 2 58 20 72 8 6 50 93 50
104 0 5 -8 -2 -19 -15 l-19 -23 -21 41 c-11 23 -25 44 -31 48 -5 3 -10 22 -10
42 0 31 -2 34 -16 22 -13 -11 -25 -3 -86 59 -58 57 -69 73 -60 85 7 8 9 17 5
21 -4 3 -10 25 -14 49 -6 32 -7 26 -4 -28 4 -75 19 -175 38 -240 6 -22 12 -44
12 -50 6 -49 31 -96 70 -135 25 -24 45 -49 45 -55 -1 -17 -37 -55 -53 -55 -14
0 -33 35 -39 75 -2 12 -12 21 -26 23 -23 4 -25 15 -27 125 0 21 -5 41 -10 45
-17 12 -36 63 -30 82 3 10 1 21 -4 25 -6 3 -15 24 -22 47 -8 32 -8 47 2 65 10
19 10 25 -3 36 -9 6 -18 28 -21 49 -4 30 -2 37 14 41 22 6 26 27 4 27 -12 0
-15 15 -15 74 0 43 6 89 15 109 26 63 16 55 -33 -28 -48 -81 -95 -197 -108
-270 -3 -22 -10 -47 -14 -55 -5 -9 -13 -49 -19 -90 -7 -41 -16 -100 -22 -130
-8 -47 -19 -288 -22 -505 -2 -151 22 -501 36 -535 8 -20 19 -101 26 -190 6
-85 14 -175 17 -200 3 -25 8 -70 10 -100 3 -30 9 -77 14 -103 6 -26 10 -65 10
-85 0 -20 3 -47 6 -59 l6 -23 262 0 261 0 21 33 c32 50 188 374 219 454 16 40
35 74 44 76 12 3 9 7 -10 15 -31 12 -105 -5 -119 -28 -11 -17 -15 -13 -24 22
-5 22 -1 29 30 47 19 12 46 21 58 21 27 0 54 27 40 39 -13 12 -89 20 -104 11
-7 -4 -10 -15 -7 -24 4 -9 2 -16 -3 -16 -6 0 -10 14 -10 30 0 23 -4 30 -20 30
-16 0 -20 7 -20 31 0 22 -9 40 -31 60 -17 16 -35 26 -40 23 -14 -8 -11 40 3
54 17 17 30 15 58 -11 14 -13 37 -27 52 -30 14 -4 33 -18 42 -32 9 -14 24 -25
33 -25 9 0 29 -13 45 -30 60 -63 58 -72 56 387 l-3 418 -39 5 c-37 5 -39 7
-62 70 -26 74 -26 87 2 33 21 -43 71 -93 91 -93 10 0 13 46 13 228 0 233 -7
291 -40 327 -10 11 -30 48 -44 82 -14 35 -35 77 -46 95 -11 18 -20 38 -20 45
0 7 -13 31 -28 55 -16 24 -35 59 -42 78 -8 19 -23 50 -33 68 -17 28 -24 32
-62 32 -28 0 -47 -6 -56 -17z m11 -842 c0 -5 -6 -14 -14 -20 -16 -13 -32 2
-21 19 8 12 35 13 35 1z m-298 -283 c-7 -7 -12 -8 -12 -2 0 6 3 14 7 17 3 4 9
5 12 2 2 -3 -1 -11 -7 -17z m-47 -25 c-11 -7 -22 -13 -27 -13 -19 0 -6 -31 18
-40 26 -10 29 -35 3 -35 -8 -1 -25 -7 -38 -14 -24 -13 -24 -20 -5 -95 4 -17 2
-26 -5 -26 -6 0 -14 13 -17 30 -4 16 -11 27 -16 24 -15 -9 2 -187 19 -197 7
-5 11 -12 8 -17 -6 -10 -22 -93 -35 -181 -5 -36 -21 -91 -36 -123 -14 -31 -23
-60 -20 -64 4 -3 25 -5 46 -3 49 3 53 -16 5 -25 -41 -7 -37 -24 5 -24 45 0
139 46 184 90 22 22 45 40 52 40 6 0 32 24 58 53 25 28 52 59 60 67 18 20 114
100 120 100 2 0 11 -7 20 -15 24 -25 9 -45 -35 -45 -31 0 -47 -8 -79 -36 -22
-20 -40 -42 -40 -49 0 -7 -6 -18 -14 -25 -8 -6 -16 -25 -18 -42 -2 -17 -10
-35 -18 -39 -16 -9 -85 -37 -98 -40 -4 -1 -20 -11 -37 -23 -42 -30 -75 -46
-94 -46 -9 0 -21 -4 -27 -9 -5 -5 -33 -11 -61 -14 l-53 -6 0 60 c0 33 6 75 14
93 28 67 32 176 6 176 -5 0 -14 -26 -20 -57 -7 -32 -15 -62 -18 -67 -9 -16
-20 28 -11 46 5 9 9 36 9 60 0 51 23 118 62 177 28 42 29 48 23 116 -6 65 -4
77 19 127 14 30 26 59 26 63 0 16 63 74 73 68 6 -3 2 -12 -8 -20z m321 8 c28
-7 53 -25 78 -54 49 -57 47 -74 -9 -82 -74 -12 -152 45 -169 122 -7 31 -6 31
26 29 18 -2 52 -8 74 -15z m-269 -26 c-4 -8 -14 -15 -23 -15 -16 0 -16 2 1 20
20 22 31 20 22 -5z m623 -6 c0 -48 -28 -96 -66 -114 -36 -17 -64 -14 -64 6 0
28 47 104 75 121 43 26 55 23 55 -13z m-733 -321 c-3 -8 -6 -5 -6 6 -1 11 2
17 5 13 3 -3 4 -12 1 -19z m37 -93 c-9 -22 -19 -34 -21 -27 -3 7 -1 18 5 25 5
7 13 26 17 42 5 18 10 24 12 15 2 -9 -4 -34 -13 -55z m326 -170 c-7 -8 -18
-15 -24 -15 -6 0 -2 7 8 15 25 19 32 19 16 0z m-350 -275 c0 -11 -102 -60
-112 -54 -5 3 -8 20 -8 37 l0 32 60 -3 c33 -2 60 -8 60 -12z m556 -111 c-6
-31 -44 -94 -52 -86 -8 8 17 101 29 109 23 15 29 8 23 -23z"/>
<path d="M2176 1026 c-4 -33 -10 -65 -13 -73 -3 -7 0 -13 6 -13 18 0 35 76 24
112 -9 32 -10 32 -17 -26z"/>
<path d="M2290 2514 c-13 -32 -13 -91 -1 -78 10 11 25 104 16 104 -3 0 -10
-12 -15 -26z"/>
<path d="M2596 2524 c-10 -25 1 -29 14 -5 6 12 7 21 1 21 -5 0 -12 -7 -15 -16z"/>
<path d="M2440 2510 c0 -5 5 -10 10 -10 6 0 10 5 10 10 0 6 -4 10 -10 10 -5 0
-10 -4 -10 -10z"/>
<path d="M2575 2480 c-3 -5 -1 -10 4 -10 6 0 11 5 11 10 0 6 -2 10 -4 10 -3 0
-8 -4 -11 -10z"/>
<path d="M2513 2314 c-6 -21 -8 -46 -3 -58 7 -18 9 -16 15 15 4 20 5 46 3 59
-2 17 -5 14 -15 -16z"/>
<path d="M2721 2324 c0 -11 3 -14 6 -6 3 7 2 16 -1 19 -3 4 -6 -2 -5 -13z"/>
<path d="M2905 2320 c3 -5 8 -10 11 -10 2 0 4 5 4 10 0 6 -5 10 -11 10 -5 0
-7 -4 -4 -10z"/>
<path d="M2290 2252 c0 -39 3 -73 8 -75 8 -6 7 131 -2 140 -3 4 -6 -26 -6 -65z"/>
<path d="M1110 2295 c0 -8 5 -15 10 -15 6 0 10 7 10 15 0 8 -4 15 -10 15 -5 0
-10 -7 -10 -15z"/>
<path d="M2937 2269 c3 -12 19 -44 34 -73 28 -49 29 -50 29 -20 0 19 -12 47
-30 72 -34 47 -41 51 -33 21z"/>
<path d="M1210 2174 c0 -16 26 -43 42 -44 3 0 0 14 -8 30 -17 33 -34 40 -34
14z"/>
<path d="M2502 2160 c0 -14 2 -19 5 -12 2 6 2 18 0 25 -3 6 -5 1 -5 -13z"/>
<path d="M1375 2040 c-3 -5 -1 -10 4 -10 6 0 11 5 11 10 0 6 -2 10 -4 10 -3 0
-8 -4 -11 -10z"/>
<path d="M2477 2003 c-11 -10 -8 -43 3 -43 6 0 10 11 10 25 0 26 -2 29 -13 18z"/>
<path d="M2813 1925 c0 -22 2 -30 4 -17 2 12 2 30 0 40 -3 9 -5 -1 -4 -23z"/>
<path d="M597 1943 c-12 -12 -7 -22 8 -17 8 4 15 10 15 15 0 11 -14 12 -23 2z"/>
<path d="M120 1865 c-10 -12 -10 -15 4 -15 9 0 16 7 16 15 0 8 -2 15 -4 15 -2
0 -9 -7 -16 -15z"/>
<path d="M2690 1851 c8 -5 28 -11 44 -15 26 -6 27 -5 13 9 -9 8 -28 15 -44 15
-20 -1 -24 -3 -13 -9z"/>
<path d="M2635 1840 c-3 -6 1 -7 9 -4 18 7 21 14 7 14 -6 0 -13 -4 -16 -10z"/>
<path d="M61 1438 c-13 -34 -2 -42 19 -16 18 23 18 38 -1 38 -5 0 -13 -10 -18
-22z"/>
<path d="M117 1414 c-8 -8 1 -24 14 -24 5 0 9 7 9 15 0 15 -12 20 -23 9z"/>
<path d="M200 1361 c0 -6 -9 -11 -20 -11 -25 0 -26 -17 -1 -25 26 -8 53 5 49
23 -3 18 -28 29 -28 13z"/>
<path d="M2807 801 c3 -11 23 -36 46 -56 32 -29 45 -35 66 -30 l26 7 -23 16
c-13 10 -41 32 -63 50 -47 37 -59 40 -52 13z"/>
<path d="M2980 700 c0 -5 5 -10 11 -10 5 0 7 5 4 10 -3 6 -8 10 -11 10 -2 0
-4 -4 -4 -10z"/>
<path d="M2980 445 c-7 -24 -19 -50 -26 -56 -8 -6 -14 -24 -14 -40 0 -24 -42
-120 -60 -139 -3 -3 -9 -12 -15 -21 -5 -9 -23 -35 -39 -59 -15 -24 -32 -55
-36 -69 -4 -14 -11 -34 -15 -43 -7 -17 2 -18 109 -18 l116 0 0 245 c0 135 -2
245 -4 245 -2 0 -9 -20 -16 -45z"/>
</g>
</svg>
